<?xml version="1.0" encoding="UTF-8" standalone="no"?>
<!-- Created with Inkscape (http://www.inkscape.org/) -->

<svg
   xmlns:dc="http://purl.org/dc/elements/1.1/"
   xmlns:cc="http://creativecommons.org/ns#"
   xmlns:rdf="http://www.w3.org/1999/02/22-rdf-syntax-ns#"
   xmlns:svg="http://www.w3.org/2000/svg"
   xmlns="http://www.w3.org/2000/svg"
   xmlns:sodipodi="http://sodipodi.sourceforge.net/DTD/sodipodi-0.dtd"
   xmlns:inkscape="http://www.inkscape.org/namespaces/inkscape"
   width="80"
   height="80"
   id="svg3790"
   version="1.1"
   inkscape:version="0.48.5 r10040"
   enable-background="new"
   sodipodi:docname="monstre.svg"
   inkscape:export-filename="/home/moi/lang/ludumdare/game1/data/monstre.png"
   inkscape:export-xdpi="44.959999"
   inkscape:export-ydpi="44.959999">
  <defs
     id="defs3792">
    <filter
       inkscape:collect="always"
       id="filter4323">
      <feBlend
         inkscape:collect="always"
         mode="screen"
         in2="BackgroundImage"
         id="feBlend4325" />
    </filter>
    <filter
       inkscape:collect="always"
       id="filter4346">
      <feBlend
         inkscape:collect="always"
         mode="screen"
         in2="BackgroundImage"
         id="feBlend4348" />
    </filter>
  </defs>
  <sodipodi:namedview
     id="base"
     pagecolor="#ffffff"
     bordercolor="#666666"
     borderopacity="1.0"
     inkscape:pageopacity="0.0"
     inkscape:pageshadow="2"
     inkscape:zoom="3.959798"
     inkscape:cx="30.06386"
     inkscape:cy="44.942539"
     inkscape:document-units="px"
     inkscape:current-layer="g4314"
     showgrid="false"
     inkscape:window-width="1355"
     inkscape:window-height="708"
     inkscape:window-x="0"
     inkscape:window-y="27"
     inkscape:window-maximized="1" />
  <metadata
     id="metadata3795">
    <rdf:RDF>
      <cc:Work
         rdf:about="">
        <dc:format>image/svg+xml</dc:format>
        <dc:type
           rdf:resource="http://purl.org/dc/dcmitype/StillImage" />
        <dc:title></dc:title>
      </cc:Work>
    </rdf:RDF>
  </metadata>
  <g
     inkscape:label="Calque 1"
     inkscape:groupmode="layer"
     id="layer1"
     transform="translate(0,-972.36218)"
     style="filter:url(#filter4346)">
    <path
       style="fill:#800000;fill-opacity:1"
       id="path4365"
       d="m 53.980298,41.84891 c -0.380327,-0.03553 -0.766957,0.01542 -1.146766,-0.01655 -0.142275,-0.01198 -0.499134,-0.08979 -0.641781,-0.119221 -0.638992,-0.145306 -1.292606,-0.191113 -1.945321,-0.219904 -0.695496,0.02122 -1.323405,-0.04404 -2.00468,-0.170404 -0.705471,-0.206573 -1.408197,-0.388361 -2.138496,-0.480877 -0.752077,-0.137952 -1.497268,-0.293964 -2.258817,-0.37306 -0.725458,-0.126736 -1.454765,-0.251513 -2.166548,-0.443362 -0.659813,-0.190691 -1.35434,-0.262743 -2.003146,-0.486339 -0.575239,-0.139838 -1.073596,-0.446554 -1.595293,-0.71106 -0.351266,-0.185677 -0.633482,-0.470991 -0.964921,-0.683749 -0.675951,-0.433907 0.219241,0.194688 -0.458905,-0.29143 -0.438319,-0.280226 -0.849218,-0.614882 -1.211725,-0.988787 -0.432669,-0.365137 -0.757772,-0.840472 -1.084024,-1.298896 -0.425,-0.442231 -0.706073,-0.990518 -0.927101,-1.556799 -0.229015,-0.67567 -0.266637,-1.390468 -0.2933,-2.097214 -0.01758,-0.717021 -0.01224,-1.434355 -0.01018,-2.151519 0.01717,-0.606385 0.22023,-1.165856 0.429571,-1.725468 0.246538,-0.572908 0.43569,-1.165935 0.735996,-1.714206 0.275031,-0.490673 0.574269,-0.967108 0.859884,-1.451717 0.300461,-0.48573 0.652507,-0.933014 0.963169,-1.411788 0.27276,-0.441509 0.607887,-0.838038 0.957238,-1.219907 0.36126,-0.395941 0.735149,-0.775698 1.16155,-1.101109 0.09245,-0.06292 0.181056,-0.131909 0.277353,-0.188774 3.562919,-2.10401 3.040989,-1.728085 0.573706,-0.356704 -0.09378,0.05213 0.177397,-0.121106 0.270373,-0.174652 0.832465,-0.479429 1.667464,-0.954501 2.505548,-1.424041 0.660848,-0.370243 -1.315886,0.750762 -1.973829,1.126143 0.825598,-0.476663 1.645203,-0.963861 2.476795,-1.429989 0.470284,-0.190972 0.0791,-0.01336 0.500598,-0.256102 0.07845,-0.04518 0.319307,-0.170686 0.241039,-0.125181 -0.798084,0.464006 -5.176665,2.96093 0.523318,-0.292789 -4.468966,3.02462 -2.292285,1.287309 -1.722755,0.959229 0.920077,-0.530016 1.817091,-1.105246 2.772481,-1.568592 0.956994,-0.464124 -0.371862,0.218386 0.614768,-0.294879 0.110378,-0.049 0.220757,-0.098 0.331135,-0.147006 0.114671,-0.04068 0.232299,-0.07382 0.344013,-0.122033 1.138577,-0.491345 -0.517455,0.166439 0.593003,-0.291174 0.266448,-0.109802 0.330486,-0.117111 0.60843,-0.191107 0.306171,-0.151058 0.650349,-0.195766 0.969147,-0.305696 0.296329,-0.102183 0.575212,-0.244685 0.875233,-0.342249 0.09789,-0.04284 0.385799,-0.18262 0.293659,-0.128518 -0.647471,0.380176 -1.305331,0.742414 -1.96131,1.107713 -0.09023,0.05025 0.17434,-0.11088 0.263829,-0.162426 0.830768,-0.478525 1.656684,-0.965827 2.496816,-1.427715 0.09162,-0.05037 0.197919,-0.06781 0.29482,-0.107071 0.101016,-0.04093 0.199034,-0.0889 0.298551,-0.133353 0.3123,-0.160988 0.665465,-0.194455 0.995908,-0.293634 0.299289,-0.08983 0.584867,-0.22003 0.886749,-0.307225 0.306559,-0.104813 0.637381,-0.08775 0.950681,-0.148348 0.285068,-0.05514 0.568727,-0.165896 0.852368,-0.2334 0.62617,-0.161553 1.283419,-0.08301 1.908279,-0.227796 0.607137,-0.173349 1.234209,-0.234896 1.861812,-0.272878 0.590982,-0.179458 1.194776,-0.281221 1.808555,-0.336867 0.693171,-0.04923 1.388568,-0.04931 2.083111,-0.05143 0.47635,-5.77e-4 0.952701,3.78e-4 1.429051,0.0011 0,0 -2.092469,1.519843 -2.092469,1.519843 l 0,0 c -0.476184,-5.73e-4 -0.952372,-0.0014 -1.428554,6.08e-4 -0.691769,0.0049 -1.384988,0.0086 -2.074034,0.07716 -0.611945,0.07465 -1.205218,0.226244 -1.811824,0.328451 -0.625077,0.05272 -1.241057,0.15148 -1.851377,0.298022 -0.633682,0.07732 -1.279453,0.07428 -1.900003,0.244243 -0.594358,0.154 -1.196279,0.246309 -1.792053,0.391076 -0.621686,0.202283 -1.253409,0.375608 -1.859511,0.620611 -0.102215,0.04386 -0.204919,0.08659 -0.306645,0.131566 -0.09355,0.04136 -0.366676,0.180392 -0.279153,0.127447 4.393798,-2.657898 0.259398,0.02825 -1.117943,0.57977 -0.612748,0.225182 -1.225851,0.443414 -1.849399,0.637998 -0.632326,0.211417 -1.228969,0.517532 -1.84024,0.781371 -0.2061,0.101663 -0.413696,0.200318 -0.618732,0.304111 -0.09617,0.04868 -0.379068,0.20515 -0.28648,0.149965 0.651211,-0.388144 1.307371,-0.767932 1.962714,-1.149058 0.0857,-0.04984 -0.169154,0.103446 -0.253731,0.155169 -0.824756,0.485045 -1.649512,0.97009 -2.474267,1.455136 0.651113,-0.379037 2.609156,-1.507949 1.95334,-1.13711 -0.832621,0.470816 -1.655057,0.959424 -2.483786,1.437056 -0.181397,0.104548 -0.292119,0.160366 -0.47912,0.255205 -0.08485,0.04303 -0.336994,0.176408 -0.25512,0.127957 0.655012,-0.387621 1.316701,-0.763847 1.975051,-1.14577 -8.264025,4.78436 1.410722,-0.855483 -0.814804,0.465023 -0.829073,0.491927 -1.669789,0.964617 -2.488728,1.473234 -0.535535,0.332604 2.90287,-1.751413 1.644223,-0.934525 -0.447816,0.283381 -0.824456,0.654927 -1.167338,1.054959 -0.379159,0.339798 -0.701724,0.754015 -0.979265,1.178453 -0.380252,0.503837 0.05976,-0.101968 -0.294524,0.464539 -0.203851,0.325958 -0.496869,0.590831 -0.688562,0.927048 -0.263455,0.499677 -0.590574,0.959383 -0.84926,1.460542 -0.357472,0.506673 -0.504664,1.103339 -0.758127,1.663028 -0.08752,0.258074 -0.223605,0.506013 -0.304231,0.764152 -0.08972,0.287237 -0.107941,0.599893 -0.182088,0.891004 -0.0022,0.714192 -0.0077,1.428503 0.0062,2.142613 0.02146,0.678373 0.04723,1.365964 0.258651,2.017078 0.211996,0.548318 0.503142,1.061228 0.902447,1.496357 0.320594,0.44838 0.647196,0.90016 1.07161,1.257428 0.360465,0.355724 0.756807,0.678525 1.183602,0.951431 0.464531,0.318688 0.918679,0.649051 1.395034,0.950174 0.510294,0.261363 1.015935,0.52762 1.573862,0.675654 0.650441,0.194578 1.325714,0.300856 1.980098,0.48317 0.707268,0.17338 1.42591,0.308622 2.146188,0.413947 0.758959,0.0941 1.502884,0.262913 2.25791,0.380758 0.732341,0.107213 1.436814,0.307928 2.154595,0.482295 0.658411,0.112202 1.317403,0.137278 1.984852,0.144285 0.662828,0.03649 1.324022,0.09878 1.973066,0.244795 0.596299,0.105721 1.19467,0.09356 1.798525,0.06761 0,0 -2.140224,1.554963 -2.140224,1.554963 z"
       inkscape:connector-curvature="0"
       transform="translate(0,972.36218)" />
    <path
       style="fill:#800000;fill-opacity:1"
       id="path4367"
       d="m 53.614304,41.051577 c -0.549521,-0.185683 -1.134819,-0.221803 -1.70947,-0.258376 -0.698848,-0.04232 -1.394542,-0.04906 -2.090277,0.02848 -0.588158,7.2e-5 -1.134449,0.198563 -1.700542,0.322414 -0.570266,0.10335 -1.130865,0.270066 -1.68615,0.437216 -0.341781,0.169776 -0.722557,0.221965 -1.07776,0.352221 -1.077071,0.394971 0.580631,-0.181892 -0.519699,0.196957 -0.525534,0.243025 -1.06234,0.460685 -1.591569,0.696918 -0.320694,0.1326 -0.614373,0.316589 -0.938018,0.442826 -0.106084,0.04138 -0.218442,0.06599 -0.323186,0.110654 -0.189061,0.08061 -0.366543,0.186291 -0.553363,0.271965 3.777316,-2.422047 1.786102,-0.953925 0.919004,-0.385615 -0.427612,0.271396 -0.812506,0.600475 -1.184622,0.942143 -0.249975,0.295032 -0.572446,0.525363 -0.793809,0.845307 -0.05035,0.07277 -0.242917,0.421925 -0.285488,0.498145 -0.32511,0.561328 -0.610653,1.144427 -0.931696,1.707767 -0.300705,0.511382 -0.572113,1.038973 -0.845952,1.56499 -0.263729,0.477942 -0.448513,0.997513 -0.638379,1.50883 -0.263211,0.510462 -0.441359,1.03382 -0.534109,1.599777 -0.08502,0.68065 -0.08459,1.368091 -0.08849,2.052898 -0.0012,0.715225 0.0015,1.430449 0.0028,2.145671 0.0056,0.603643 0.109085,1.226844 0.292658,1.803032 0.158079,0.543644 0.355105,1.071022 0.53325,1.607993 0.111095,0.327438 0.329971,0.589583 0.50069,0.883202 0.318349,0.547528 -0.05802,-0.0338 0.263799,0.449819 0.36788,0.356098 0.701236,0.759161 0.947529,1.208958 0.300519,0.424888 0.475953,0.916985 0.785427,1.335962 0.304031,0.43135 0.525904,0.911522 0.796284,1.362379 0.307143,0.513103 0.554451,1.055028 0.824472,1.587621 0.335594,0.568896 0.555763,1.20451 1.00728,1.694585 0.236312,0.301263 0.514513,0.582099 0.72247,0.905539 0.182868,0.32666 0.08745,0.172782 0.283692,0.463208 0.329623,0.475912 0.879286,0.707168 1.325572,1.054455 0.07403,0.05033 0.149082,0.09919 0.222094,0.15099 0.228218,0.161906 0.249213,0.201639 0.499058,0.332142 0.277095,0.144735 0.57976,0.223653 0.864553,0.352332 0.356535,0.198244 0.76027,0.232424 1.146575,0.327325 0.192192,0.04721 0.376513,0.122089 0.564895,0.182745 0.08394,0.04569 0.17397,0.08163 0.251818,0.137062 0.14655,0.104356 0.258996,0.250595 0.399816,0.362563 0.207758,0.165193 0.4236,0.246391 0.673182,0.3263 0.318917,0.199548 0.685695,0.262661 1.035872,0.374255 0.180034,0.05737 0.351109,0.139814 0.527636,0.207207 0.583363,0.205499 1.203386,0.240434 1.815607,0.268921 0.704596,0.02283 1.409711,0.01897 2.114576,0.01793 0.279128,-5.48e-4 0.37409,0.0021 0.638975,-0.008 0.05559,-0.0021 0.111237,-0.0044 0.166606,-0.0098 0.01564,-0.0015 0.05866,-0.02002 0.04587,-0.0109 -2.255112,1.608279 -1.454101,2.039798 -2.365936,1.482505 -0.510747,-0.184495 -1.013648,-0.373973 -1.545869,-0.492624 -0.433328,-0.111729 -0.217427,-0.05054 -0.647645,-0.183761 0,0 2.140244,-1.462142 2.140244,-1.462142 l 0,0 c 0.424071,0.121519 0.211432,0.06421 0.637901,0.171996 0.545315,0.134817 1.071786,0.326335 1.609523,0.487222 0.964152,0.016 0.157978,-0.0172 -1.985632,1.569392 -0.0066,0.0049 -0.0144,-0.0089 -0.02255,-0.0098 -0.04719,-0.0052 -0.09474,-0.0068 -0.142193,-0.0085 -0.08781,-0.0031 -0.175671,-0.0051 -0.263534,-0.0059 -0.119287,-0.001 -0.238581,3.95e-4 -0.357872,5.92e-4 -0.708897,5.23e-4 -1.418203,0.004 -2.126604,-0.02663 -0.635469,-0.03823 -1.275509,-0.09437 -1.875019,-0.32595 -0.519336,-0.197464 -1.060608,-0.328761 -1.560241,-0.57761 -0.273307,-0.10789 -0.504548,-0.219981 -0.733548,-0.407216 -0.0751,-0.0614 -0.270845,-0.252076 -0.36018,-0.307229 -0.07018,-0.04333 -0.149376,-0.06996 -0.224065,-0.104946 -0.574546,-0.181649 -1.177746,-0.266184 -1.722806,-0.535467 -0.572848,-0.244443 -1.14528,-0.469701 -1.625286,-0.883503 -0.475274,-0.354841 -1.029785,-0.624975 -1.37374,-1.126548 -0.304346,-0.464315 -0.594305,-0.937317 -0.976329,-1.345726 -0.442747,-0.524156 -0.695489,-1.162991 -1.04508,-1.749242 -0.264576,-0.528934 -0.50991,-1.065009 -0.824025,-1.567222 -0.26225,-0.446775 -0.48692,-0.916087 -0.78553,-1.341523 -0.306408,-0.433622 -0.500549,-0.926534 -0.799886,-1.364439 -0.245699,-0.444372 -0.591088,-0.823373 -0.938474,-1.190746 -0.290654,-0.448788 -0.571186,-0.908289 -0.7926,-1.395526 -0.176999,-0.538258 -0.376662,-1.06575 -0.534153,-1.610464 -0.192467,-0.601611 -0.304699,-1.251904 -0.313197,-1.882422 -0.0012,-0.715579 -0.0034,-1.431156 -0.0039,-2.146736 0.0015,-0.693679 -0.0011,-1.388959 0.06308,-2.080335 0.07149,-0.577069 0.185852,-1.142247 0.504628,-1.640342 0.08509,-0.266095 0.209857,-0.504758 0.306064,-0.764271 0.09817,-0.264804 0.138259,-0.552705 0.310051,-0.788489 0.282626,-0.447349 0.01171,0.0094 0.256476,-0.498601 0.178691,-0.370842 0.428153,-0.705729 0.601496,-1.080077 0.354759,-0.537507 0.598781,-1.140932 0.921367,-1.698322 0.158489,-0.254329 0.260039,-0.536989 0.443553,-0.775325 0.234828,-0.304979 0.153341,-0.144773 0.418866,-0.410042 0.06644,-0.06638 0.122473,-0.142405 0.183709,-0.213608 0.339128,-0.377759 0.747903,-0.704139 1.169065,-0.983923 0.480033,-0.373814 -0.07713,0.04016 0.436954,-0.280572 0.360459,-0.224889 0.06186,-0.07681 0.406072,-0.337169 0.831702,-0.629085 2.377954,-0.211032 2.703121,-1.574938 0.600239,-0.280362 1.218723,-0.518997 1.810987,-0.817359 0.535282,-0.236142 1.070108,-0.475577 1.614376,-0.689723 0.530121,-0.194557 1.072166,-0.350273 1.60581,-0.534675 0.562498,-0.151878 1.118523,-0.329032 1.693952,-0.427498 0.566313,-0.141596 1.129624,-0.274055 1.717211,-0.289984 0.701399,-0.05122 1.404191,-0.02924 2.105845,0.0119 0.608535,0.04565 1.223175,0.09983 1.806743,0.290108 0,0 -2.200647,1.474309 -2.200647,1.474309 z"
       inkscape:connector-curvature="0"
       transform="translate(0,972.36218)" />
    <path
       style="fill:#800000;fill-opacity:1"
       id="path4369"
       d="m 37.399428,47.63939 c -0.07166,0.01516 -0.145096,0.02354 -0.214974,0.04549 -0.09149,0.02874 -0.178284,0.07069 -0.267426,0.106039 -0.106282,0.0359 -0.211634,0.07468 -0.318847,0.107693 -0.355739,0.109541 -0.714228,0.178961 -1.080572,0.240937 -0.730343,0.105283 -1.469369,0.115462 -2.205809,0.123403 -0.71714,0.0038 -1.434295,6.49e-4 -2.151438,-8.12e-4 -0.71414,-0.0014 -1.428281,-0.0017 -2.142422,-0.002 -0.641972,0.0062 -1.263607,-0.187474 -1.898598,-0.270456 -0.674549,-0.07404 -1.353936,-0.08046 -2.031754,-0.08704 C 24.470673,47.7785 23.856707,47.659658 23.22957,47.60068 22.946143,47.505938 22.640731,47.469669 22.358008,47.374228 22.095057,47.285462 21.845295,47.15124 21.582254,47.058593 21.280038,46.845036 20.927914,46.757812 20.588726,46.632801 20.414751,46.568681 20.249903,46.482011 20.07883,46.41051 19.706881,46.259811 19.290694,46.158801 18.955065,45.929655 18.789039,45.816303 18.646482,45.671911 18.491239,45.54419 18.064855,45.220513 17.618681,44.93503 17.155468,44.666255 16.605514,44.327959 16.043332,44.011719 15.486829,43.683931 15.086074,43.568585 14.834115,43.253234 14.51825,43.01214 c -0.671487,-0.512532 0.261094,0.254897 -0.419282,-0.314393 -0.394031,-0.325241 -0.806495,-0.615939 -1.242995,-0.883033 -0.36017,-0.09556 -0.572072,-0.389624 -0.8521,-0.603618 -0.678042,-0.518154 0.297419,0.285007 -0.404657,-0.302494 C 11.14678,40.601592 10.75698,40.225277 10.439058,39.780953 10.106521,39.328953 9.7224156,38.921841 9.3628411,38.492666 8.979827,38.13004 8.6664635,37.684592 8.4317504,37.21283 8.2868331,36.688853 7.966981,36.2499 7.7344456,35.767058 7.5264232,35.302426 7.3851299,34.731278 7.0554389,34.344361 6.6301435,33.926379 6.5498723,33.35633 6.3755216,32.817617 6.1509243,32.229666 6.0736366,31.608059 6.0257158,30.985138 c -0.04059,-0.704411 -0.038281,-1.410366 -0.038792,-2.115674 0.075496,-0.614928 0.1785173,-1.233032 0.3152233,-1.838013 0.1899269,-0.558462 0.2674316,-1.143019 0.4399325,-1.705734 0.1250662,-0.561033 0.3439221,-1.093023 0.4943267,-1.646419 0.082406,-0.268704 0.1869967,-0.529271 0.2793255,-0.794599 0,0 2.357726,-1.108795 2.357726,-1.108795 l 0,0 c -0.081689,0.265382 -0.1693788,0.52778 -0.2902635,0.778635 -0.127789,0.567139 -0.3735592,1.089189 -0.4849747,1.660003 -0.057823,0.178128 -0.1340152,0.350935 -0.177116,0.533186 -0.09132,0.386144 -0.1053908,0.794385 -0.2687774,1.164041 -0.1864214,0.574949 -0.2021086,1.19829 -0.361007,1.78338 3.004e-4,0.698662 -0.00226,1.397903 0.035463,2.095787 0.04383,0.6021 0.1133723,1.203604 0.3318448,1.771601 0.1659912,0.509796 0.2318117,1.046484 0.6389787,1.44007 0.3367038,0.434185 0.4947762,0.974111 0.7063939,1.476561 0.232201,0.481336 0.552422,0.919939 0.695852,1.442768 0.226537,0.454773 0.536791,0.871271 0.899936,1.226128 0.365264,0.431578 0.740232,0.85366 1.078174,1.307787 0.314656,0.419578 0.709516,0.761036 1.135488,1.065259 0.134014,0.106901 0.275949,0.203613 0.409948,0.310531 0.265717,0.212015 0.494906,0.454929 0.828201,0.568628 0.438377,0.281475 0.86222,0.57551 1.260535,0.911459 0.267473,0.215777 0.127354,0.107932 0.421251,0.322372 0.297941,0.238801 0.560291,0.508502 0.932148,0.640096 0.55334,0.337706 1.124131,0.64138 1.681058,0.973053 0.466787,0.28377 0.925719,0.572682 1.352699,0.914691 0.06662,0.05516 0.351088,0.294903 0.429694,0.343748 0.342694,0.212949 0.751982,0.298359 1.119097,0.45689 0.500353,0.211052 1.019356,0.37258 1.495433,0.638775 0.524105,0.19875 1.039273,0.418618 1.600458,0.495855 0.618373,0.0684 1.222861,0.205183 1.838596,0.287093 0.687097,0.0093 1.376092,0.02013 2.058571,0.108292 0.621992,0.09195 1.23595,0.272747 1.869232,0.24746 0.714217,2.88e-4 1.428435,7.61e-4 2.14265,0.0024 0.716053,0.0016 1.43214,0.0051 2.148174,-0.0019 0.727728,-0.01224 1.458737,-0.02943 2.177276,-0.157084 0.6539,-0.133385 1.27984,-0.344826 1.908636,-0.565948 0,0 -2.087679,1.62191 -2.087679,1.62191 z"
       inkscape:connector-curvature="0"
       transform="translate(0,972.36218)" />
    <path
       style="fill:#800000;fill-opacity:1"
       id="path4371"
       d="m 33.071653,30.249036 c -0.290427,-0.438535 -0.682246,-0.791051 -0.965531,-1.235308 -0.327844,-0.456115 -0.66156,-0.907396 -1.006331,-1.351814 -0.356815,-0.533792 -0.791953,-1.006048 -1.188151,-1.509998 -0.403997,-0.552991 -0.689546,-1.17368 -0.998857,-1.781034 -0.365581,-0.49278 -0.603446,-1.060096 -0.875272,-1.605967 -0.05017,-0.109064 -0.09497,-0.220765 -0.150512,-0.327193 -0.1006,-0.192757 -0.227574,-0.370949 -0.328445,-0.563564 -0.146622,-0.279979 -0.242405,-0.578075 -0.376138,-0.863885 -0.231093,-0.481511 -0.513988,-0.937477 -0.781806,-1.40039 -0.03913,-0.08538 -0.07409,-0.172803 -0.117395,-0.256144 -0.228273,-0.439302 -0.02559,0.02168 -0.253836,-0.446698 -0.123063,-0.252538 -0.194885,-0.52178 -0.306309,-0.779285 -0.194457,-0.528833 -0.385721,-1.05955 -0.561756,-1.595601 -0.107463,-0.582916 -0.313849,-1.138206 -0.44338,-1.715892 -0.110684,-0.588773 -0.310221,-1.150459 -0.408693,-1.743472 -0.09538,-0.599903 0.02074,-1.209732 0.169463,-1.791814 0.164667,-0.542485 0.344699,-1.077053 0.53294,-1.6116197 0.156062,-0.5897677 0.221358,-1.1879935 0.433777,-1.7629824 0.120787,-0.2584276 0.06954,-0.1491918 0.153489,-0.3278246 0,0 2.419875,-1.0712323 2.419875,-1.0712323 l 0,0 c -0.127693,0.1734506 -0.05507,0.071531 -0.214181,0.3083542 -0.114286,0.2615341 -0.22402,0.5404005 -0.279398,0.8221648 -0.05995,0.3050328 -0.04959,0.6263026 -0.15549,0.9236699 -0.08302,0.2659278 -0.209108,0.5152623 -0.293493,0.7784715 -0.08728,0.2722525 -0.110448,0.5681124 -0.240763,0.8281566 -0.102737,0.276269 -0.137273,0.542973 -0.187949,0.832681 -0.02039,0.116552 -0.07904,0.420775 -0.07809,0.541022 8.4e-4,0.105366 0.02363,0.209409 0.03545,0.314113 0.09431,0.589044 0.295008,1.14506 0.404453,1.72913 0.124772,0.570182 0.333806,1.115839 0.434916,1.691505 0.172033,0.528972 0.363192,1.051312 0.55286,1.573327 0.10751,0.250055 0.176788,0.512612 0.296316,0.757116 0.152081,0.311094 0.09764,0.14788 0.261486,0.46359 0.03941,0.07594 0.07112,0.155649 0.106673,0.233473 0.272289,0.469556 0.556744,0.934831 0.786379,1.426098 0.126905,0.281029 0.217863,0.574143 0.358636,0.848785 0.396561,0.773672 -0.09191,-0.23129 0.332238,0.585548 0.05375,0.103521 0.09853,0.211462 0.147791,0.317193 0.28319,0.540795 0.531151,1.101652 0.882339,1.604019 0.294633,0.595309 0.566268,1.202749 0.972357,1.733771 0.403666,0.49743 0.817676,0.98662 1.184653,1.512245 0.36248,0.44209 0.705766,0.898345 1.030395,1.368473 0.276631,0.426669 0.649313,0.774741 0.972527,1.165572 0,0 -2.257241,1.38324 -2.257241,1.38324 z"
       inkscape:connector-curvature="0"
       transform="translate(0,972.36218)" />
    <path
       style="fill:#800000;fill-opacity:1"
       id="path4373"
       d="m 19.857367,48.463322 c -0.03352,-0.01738 -0.06298,-0.04843 -0.100551,-0.05215 -0.204034,-0.02021 -0.746085,0.254473 -0.966821,0.327912 -0.09211,0.02298 -0.185831,0.04025 -0.276321,0.06894 -1.11601,0.353863 0.589265,-0.142266 -0.601429,0.213715 -0.329228,0.09843 -0.652589,0.151646 -0.974247,0.274842 -0.09768,0.03481 -0.194344,0.07259 -0.293032,0.104422 -0.539467,0.173988 -0.06863,-0.01735 -0.551472,0.216656 -0.0841,0.04076 -0.33598,0.163039 -0.255212,0.116033 2.657652,-1.546727 2.600677,-1.515931 1.794523,-0.998758 -6.063008,3.46234 -0.915356,0.52165 -0.454387,0.262106 0.07599,-0.04279 -0.147916,0.09242 -0.221941,0.138519 -0.253584,0.157926 -0.477584,0.329262 -0.707032,0.520431 -0.41067,0.373524 -0.811258,0.759175 -1.18129,1.173172 -0.420157,0.489186 -0.809507,1.003641 -1.222668,1.49905 -0.433901,0.413895 -0.717309,0.929569 -0.998948,1.450801 -0.271086,0.595751 -0.57075,1.184073 -0.772836,1.808061 -0.138744,0.584254 -0.344841,1.14458 -0.453051,1.736266 -0.143801,0.605347 -0.0017,1.189631 0.09758,1.786636 0.129586,0.52983 0.452938,0.96646 0.6372,1.475723 0.178929,0.486928 0.494628,0.882111 0.803777,1.288555 0.329153,0.512842 0.550433,1.079343 0.809809,1.628044 0.214615,0.516362 0.463749,1.017871 0.720725,1.514652 0.220751,0.484909 0.464774,0.958712 0.713169,1.430521 0.313647,0.402942 0.519814,0.87193 0.839745,1.270043 0.413011,0.295365 0.689504,0.72721 1.038578,1.087504 0.155187,0.204578 0.34142,0.376715 0.507791,0.571901 0,0 -2.238033,1.348993 -2.238033,1.348993 l 0,0 C 15.385399,70.53662 15.205007,70.3622 15.04932,70.164399 14.702676,69.790674 14.40095,69.375113 13.998533,69.055796 13.67865,68.638768 13.450515,68.165771 13.137264,67.743921 12.888118,67.27174 12.645248,66.796333 12.423919,66.310982 12.166077,65.81079 11.918764,65.304185 11.70577,64.783487 11.457353,64.250003 11.243396,63.700681 10.913611,63.209768 10.585837,62.783698 10.266679,62.357573 10.07544,61.848216 9.8888954,61.324208 9.5461252,60.87725 9.4215585,60.328613 9.3168292,59.707944 9.1568887,59.097403 9.2867605,58.464967 c 0.04486,-0.305434 0.095469,-0.602994 0.1858029,-0.898974 0.056222,-0.184213 0.1411233,-0.35924 0.191625,-0.545102 0.028691,-0.105593 0.041517,-0.21487 0.062275,-0.322305 0.1784856,-0.651104 0.5035994,-1.236197 0.7567424,-1.859144 0.281164,-0.522238 0.505879,-1.096267 0.968917,-1.489562 0.756216,-0.972385 -0.404267,0.503167 0.39522,-0.457274 0.284696,-0.342011 0.528972,-0.715214 0.823006,-1.049743 0.362312,-0.433896 0.765852,-0.817366 1.165083,-1.21569 0.309203,-0.245996 0.160103,-0.115363 0.446957,-0.392284 0.133671,-0.108462 0.314385,-0.202229 0.462863,-0.288838 0.262558,-0.153155 5.594489,-3.268448 0.454126,-0.265134 1.214473,-0.764429 2.403491,-1.581215 3.788033,-1.977245 0.623558,-0.180905 1.249483,-0.348977 1.860898,-0.570389 0.412863,-0.15666 0.874351,-0.378696 1.2663,-0.0532 0,0 -2.257242,1.38324 -2.257242,1.38324 z"
       inkscape:connector-curvature="0"
       transform="translate(0,972.36218)" />
    <path
       sodipodi:type="arc"
       style="fill:#000000;fill-opacity:1"
       id="path4375"
       sodipodi:cx="68.125"
       sodipodi:cy="33.660713"
       sodipodi:rx="1.6964285"
       sodipodi:ry="2.0535715"
       d="m 69.81962,33.755512 a 1.6964285,2.0535715 0 1 1 4.86e-4,-0.01373 L 68.125,33.660713 z"
       transform="translate(0,972.36218)"
       sodipodi:start="0.046179308"
       sodipodi:end="6.3226717" />
  </g>
  <g
     transform="translate(0,-972.36218)"
     id="g4314"
     inkscape:groupmode="layer"
     inkscape:label="Copie de Calque 1"
     style="filter:url(#filter4323)">
    <path
       sodipodi:type="arc"
       style="fill:#ff0000;fill-opacity:1"
       id="path3800"
       sodipodi:cx="67.76786"
       sodipodi:cy="37.32143"
       sodipodi:rx="7.2321429"
       sodipodi:ry="8.2142859"
       d="M 74.272691,40.911549 A 7.2321429,8.2142859 0 1 1 73.717227,32.650957 L 67.76786,37.32143 z"
       transform="matrix(1.7018796,0,0,1.6302913,-48.023345,952.58879)"
       sodipodi:start="0.45232502"
       sodipodi:end="5.6784074" />
    <path
       sodipodi:type="arc"
       style="fill:#000000;fill-opacity:1"
       id="path4380"
       sodipodi:cx="-27.321428"
       sodipodi:cy="4.1071429"
       sodipodi:rx="2.8571429"
       sodipodi:ry="2.3214285"
       d="m -24.467331,4.2143068 a 2.8571429,2.3214285 0 1 1 0.0029,-0.083902"
       transform="translate(94.821429,1001.8265)"
       sodipodi:start="0.046179308"
       sodipodi:end="6.2932061"
       sodipodi:open="true" />
  </g>
</svg>
